<svg xmlns="http://www.w3.org/2000/svg" viewBox="0 0 64 64">
  <defs><linearGradient id="g" x1="0" y1="0" x2="1" y2="1"><stop stop-color="#2563eb"/><stop offset="1" stop-color="#6d5dfc"/></linearGradient></defs>
  <rect width="64" height="64" rx="18" fill="url(#g)"/>
  <path d="M14 17c0-3 2.4-5 5.5-5H30c4.4 0 8 3.6 8 8v31c-2-3.1-5.4-5.1-9.4-5.1H14V17Z" fill="none" stroke="#fff" stroke-width="4" stroke-linejoin="round"/>
  <path d="M50 17c0-3-2.4-5-5.5-5H38v39c2-3.1 5.4-5.1 9.4-5.1H50V17Z" fill="none" stroke="#fff" stroke-width="4" stroke-linejoin="round"/>
  <path d="m46 18 1.3 3.2 3.2 1.3-3.2 1.3L46 27l-1.3-3.2-3.2-1.3 3.2-1.3L46 18Z" fill="#fef08a"/>
</svg>
